<?xml version="1.0" encoding="UTF-8" standalone="no"?>
<!-- Created with Inkscape (http://www.inkscape.org/) -->

<svg
   xmlns:dc="http://purl.org/dc/elements/1.1/"
   xmlns:cc="http://creativecommons.org/ns#"
   xmlns:rdf="http://www.w3.org/1999/02/22-rdf-syntax-ns#"
   xmlns:svg="http://www.w3.org/2000/svg"
   xmlns="http://www.w3.org/2000/svg"
   xmlns:xlink="http://www.w3.org/1999/xlink"
   xmlns:sodipodi="http://sodipodi.sourceforge.net/DTD/sodipodi-0.dtd"
   xmlns:inkscape="http://www.inkscape.org/namespaces/inkscape"
   width="210mm"
   height="297mm"
   viewBox="0 0 210 297"
   version="1.1"
   id="svg8"
   sodipodi:docname="icon2.svg"
   inkscape:version="0.92.5 (2060ec1f9f, 2020-04-08)">
  <defs
     id="defs2">
    <linearGradient
       inkscape:collect="always"
       id="linearGradient888">
      <stop
         style="stop-color:#000000;stop-opacity:1;"
         offset="0"
         id="stop884" />
      <stop
         style="stop-color:#000000;stop-opacity:0;"
         offset="1"
         id="stop886" />
    </linearGradient>
    <linearGradient
       inkscape:collect="always"
       xlink:href="#linearGradient888"
       id="linearGradient890"
       x1="15.673867"
       y1="37.016897"
       x2="34.968109"
       y2="37.016897"
       gradientUnits="userSpaceOnUse" />
  </defs>
  <sodipodi:namedview
     id="base"
     pagecolor="#ffffff"
     bordercolor="#666666"
     borderopacity="1.0"
     inkscape:pageopacity="0.0"
     inkscape:pageshadow="2"
     inkscape:zoom="2"
     inkscape:cx="72.969273"
     inkscape:cy="977.9451"
     inkscape:document-units="mm"
     inkscape:current-layer="layer1"
     showgrid="true"
     inkscape:snap-text-baseline="true"
     inkscape:window-width="1848"
     inkscape:window-height="1016"
     inkscape:window-x="72"
     inkscape:window-y="27"
     inkscape:window-maximized="1">
    <inkscape:grid
       type="xygrid"
       id="grid815" />
  </sodipodi:namedview>
  <metadata
     id="metadata5">
    <rdf:RDF>
      <cc:Work
         rdf:about="">
        <dc:format>image/svg+xml</dc:format>
        <dc:type
           rdf:resource="http://purl.org/dc/dcmitype/StillImage" />
      </cc:Work>
    </rdf:RDF>
  </metadata>
  <g
     inkscape:label="Layer 1"
     inkscape:groupmode="layer"
     id="layer1">
    <path
       style="fill:#9bd6ff;fill-opacity:1;stroke:none;stroke-width:1;stroke-linecap:square;stroke-linejoin:miter;stroke-miterlimit:3.9000001;stroke-dasharray:none;stroke-dashoffset:0;stroke-opacity:1;paint-order:stroke fill markers"
       d="M 6.8667643,0.85425246 1.3229167,9.9270833 H 5.55625 L 8.9834307,4.3785849 H 19.831348 l 3.427179,5.5484984 h 4.233334 L 21.948015,0.85425246 Z M 1.3229167,15.218749 6.8667643,24.291582 H 21.948015 l 5.543846,-9.072833 h -4.233334 l -3.427179,5.548498 H 8.9834307 L 5.55625,15.218749 Z"
       id="path829"
       inkscape:connector-curvature="0"
       sodipodi:nodetypes="cccccccccccccccccc" />
    <text
       xml:space="preserve"
       style="font-style:normal;font-weight:normal;font-size:11.15454865px;line-height:1.25;font-family:sans-serif;letter-spacing:0px;word-spacing:0px;fill:#51b6f8;fill-opacity:1;stroke:none;stroke-width:0.27886367"
       x="13.934638"
       y="14.489406"
       id="text844"
       transform="scale(1.023233,0.97729452)"><tspan
         sodipodi:role="line"
         id="tspan842"
         x="14.49376"
         y="14.489406"
         style="font-style:normal;font-variant:normal;font-weight:normal;font-stretch:normal;font-size:5.2054553px;line-height:0.25;font-family:Uroob;-inkscape-font-specification:Uroob;text-align:center;letter-spacing:1.11824358px;text-anchor:middle;fill:#51b6f8;fill-opacity:1;stroke-width:0.27886367"
         dx="0.042158924">HEXAGON</tspan></text>
    <text
       xml:space="preserve"
       style="font-style:normal;font-weight:normal;font-size:12.03805351px;line-height:1.25;font-family:sans-serif;letter-spacing:0px;word-spacing:0px;fill:#6fc7ff;fill-opacity:1;stroke:none;stroke-width:0.30095133"
       x="12.581707"
       y="11.291648"
       id="text898"
       transform="scale(1.1374539,0.87915652)"><tspan
         sodipodi:role="line"
         id="tspan896"
         x="12.772811"
         y="11.291648"
         style="font-style:normal;font-variant:normal;font-weight:normal;font-stretch:normal;font-size:3.6114161px;font-family:Uroob;-inkscape-font-specification:Uroob;text-align:center;letter-spacing:0.3822082px;text-anchor:middle;fill:#6fc7ff;fill-opacity:1;stroke-width:0.30095133">GAME</tspan></text>
    <text
       xml:space="preserve"
       style="font-style:normal;font-weight:normal;font-size:10.58333302px;line-height:1.25;font-family:sans-serif;letter-spacing:0px;word-spacing:0px;fill:#000000;fill-opacity:1;stroke:none;stroke-width:0.26458332"
       x="22.489584"
       y="38.502083"
       id="text902"><tspan
         sodipodi:role="line"
         id="tspan900"
         x="22.489584"
         y="47.865852"
         style="stroke-width:0.26458332"></tspan></text>
    <text
       xml:space="preserve"
       style="font-style:normal;font-weight:normal;font-size:12.10657978px;line-height:1.25;font-family:sans-serif;letter-spacing:0px;word-spacing:0px;fill:#6fc7ff;fill-opacity:1;stroke:none;stroke-width:0.30266449"
       x="12.509531"
       y="19.725466"
       id="text898-8"
       transform="scale(1.1439288,0.87418028)"><tspan
         sodipodi:role="line"
         id="tspan896-5"
         x="12.632562"
         y="19.725466"
         style="font-style:normal;font-variant:normal;font-weight:normal;font-stretch:normal;font-size:3.63197374px;font-family:Uroob;-inkscape-font-specification:Uroob;text-align:center;letter-spacing:0.2460625px;text-anchor:middle;fill:#6fc7ff;fill-opacity:1;stroke-width:0.30266449">ENGINE</tspan></text>
    <path
       style="fill:#ff9b9b;fill-opacity:1;stroke:none;stroke-width:1;stroke-linecap:square;stroke-linejoin:miter;stroke-miterlimit:3.9000001;stroke-dasharray:none;stroke-dashoffset:0;stroke-opacity:1;paint-order:stroke fill markers"
       d="M 35.970931,0.85425221 30.427083,9.9270833 h 4.233334 l 3.42718,-5.5484986 h 10.847919 l 3.427179,5.5484986 h 4.233334 L 51.052182,0.85425221 Z M 30.427083,15.21875 l 5.543848,9.072833 h 15.081251 l 5.543847,-9.072833 h -4.233334 l -3.427179,5.548498 H 38.087597 l -3.42718,-5.548498 z"
       id="path829-0"
       inkscape:connector-curvature="0"
       sodipodi:nodetypes="cccccccccccccccccc" />
    <text
       xml:space="preserve"
       style="font-style:normal;font-weight:normal;font-size:11.15454865px;line-height:1.25;font-family:sans-serif;letter-spacing:0px;word-spacing:0px;fill:#ff8080;fill-opacity:1;stroke:none;stroke-width:0.27886367"
       x="42.399059"
       y="14.541865"
       id="text844-6"
       transform="scale(1.023233,0.97729452)"><tspan
         sodipodi:role="line"
         x="42.958652"
         y="14.541865"
         style="font-style:normal;font-variant:normal;font-weight:normal;font-stretch:normal;font-size:5.2054553px;line-height:0;font-family:Uroob;-inkscape-font-specification:Uroob;text-align:center;letter-spacing:1.11918747px;text-anchor:middle;fill:#ff8080;fill-opacity:1;stroke-width:0.27886367"
         id="tspan4768"><tspan
           dx="0"
           dy="0"
           id="tspan4766"
           style="font-style:normal;font-variant:normal;font-weight:normal;font-stretch:normal;font-size:5.2054553px;line-height:0;font-family:Uroob;-inkscape-font-specification:Uroob;text-align:center;letter-spacing:1.11918747px;text-anchor:middle;fill:#ff8080;fill-opacity:1;stroke-width:0.27886367"
           rotate="0 0 0 0 0 0 0 0">HEXAGON</tspan></tspan><tspan
         sodipodi:role="line"
         x="42.399059"
         y="28.48505"
         style="font-style:normal;font-variant:normal;font-weight:normal;font-stretch:normal;font-size:5.2054553px;line-height:0;font-family:Uroob;-inkscape-font-specification:Uroob;text-align:center;letter-spacing:0.4392083px;text-anchor:middle;fill:#ff8080;fill-opacity:1;stroke-width:0.27886367"
         dx="0.042158924"
         id="tspan4774" /><tspan
         sodipodi:role="line"
         x="42.399059"
         y="42.428238"
         style="font-style:normal;font-variant:normal;font-weight:normal;font-stretch:normal;font-size:5.2054553px;line-height:0;font-family:Uroob;-inkscape-font-specification:Uroob;letter-spacing:0.4392083px;fill:#ff8080;fill-opacity:1;stroke-width:0.27886367"
         dx="0.042158924"
         id="tspan4754" /></text>
    <path
       style="fill:#75dc85;fill-opacity:1;stroke:none;stroke-width:1;stroke-linecap:square;stroke-linejoin:miter;stroke-miterlimit:3.9000001;stroke-dasharray:none;stroke-dashoffset:0;stroke-opacity:1;paint-order:stroke fill markers"
       d="M 65.075098,0.85425201 59.53125,9.9270833 h 4.233334 l 3.42718,-5.5484988 h 10.847919 l 3.427179,5.5484988 h 4.233334 L 80.156349,0.85425201 Z M 59.53125,15.21875 l 5.543848,9.072833 h 15.081251 l 5.543847,-9.072833 h -4.233334 l -3.427179,5.548498 H 67.191764 l -3.42718,-5.548498 z"
       id="path829-0-6"
       inkscape:connector-curvature="0"
       sodipodi:nodetypes="cccccccccccccccccc" />
    <text
       xml:space="preserve"
       style="font-style:normal;font-weight:normal;font-size:19.3416729px;line-height:1.25;font-family:sans-serif;letter-spacing:0px;word-spacing:0px;fill:#67d979;fill-opacity:1;stroke:none;stroke-width:0.48354173"
       x="69.935776"
       y="15.838736"
       id="text844-6-2"
       transform="scale(1.0351888,0.96600735)"><tspan
         sodipodi:role="line"
         id="tspan842-4-8"
         x="70.905273"
         y="15.838736"
         style="font-style:normal;font-variant:normal;font-weight:normal;font-stretch:normal;font-size:9.02611256px;line-height:0.25;font-family:Uroob;-inkscape-font-specification:Uroob;text-align:center;letter-spacing:1.93900275px;text-anchor:middle;fill:#67d979;fill-opacity:1;stroke-width:0.48354173">EGE</tspan></text>
    <path
       style="fill:#ff9b9b;fill-opacity:1;stroke:none;stroke-width:1;stroke-linecap:square;stroke-linejoin:miter;stroke-miterlimit:3.9000001;stroke-dasharray:none;stroke-dashoffset:0;stroke-opacity:1;paint-order:stroke fill markers"
       d="m 35.970932,27.312586 -5.543849,9.072831 h 4.233334 l 3.42718,-5.548499 h 10.84792 l 3.427179,5.548499 h 4.233334 l -5.543847,-9.072831 z m -5.543849,14.364498 5.543849,9.072833 h 15.081251 l 5.543847,-9.072833 h -4.233334 l -3.427179,5.548498 h -10.84792 l -3.42718,-5.548498 z"
       id="path829-0-4"
       inkscape:connector-curvature="0"
       sodipodi:nodetypes="cccccccccccccccccc" />
    <flowRoot
       xml:space="preserve"
       id="flowRoot4758"
       style="fill:black;fill-opacity:1;stroke:none;font-family:sans-serif;font-style:normal;font-weight:normal;font-size:40px;line-height:1.25;letter-spacing:0px;word-spacing:0px"><flowRegion
         id="flowRegion4760"><rect
           id="rect4762"
           width="75"
           height="55"
           x="125"
           y="42.519684" /></flowRegion><flowPara
         id="flowPara4764"></flowPara></flowRoot>    <text
       xml:space="preserve"
       style="font-style:normal;font-weight:normal;font-size:10.58333302px;line-height:1.25;font-family:sans-serif;letter-spacing:0px;word-spacing:0px;fill:#000000;fill-opacity:1;stroke:none;stroke-width:0.26458332"
       x="14.552083"
       y="25.802084"
       id="text4778"><tspan
         sodipodi:role="line"
         id="tspan4776"
         x="14.552083"
         y="25.802084"
         style="font-size:1.41111112px;text-align:center;text-anchor:middle;stroke-width:0.26458332">Engine global icon (GitHub/Installer Icon)</tspan></text>
    <text
       xml:space="preserve"
       style="font-style:normal;font-weight:normal;font-size:10.58333302px;line-height:1.25;font-family:sans-serif;text-align:center;letter-spacing:0px;word-spacing:0px;text-anchor:middle;fill:#000000;fill-opacity:1;stroke:none;stroke-width:0.26458332"
       x="43.65625"
       y="24.479166"
       id="text4782"><tspan
         sodipodi:role="line"
         id="tspan4780"
         x="43.65625"
         y="33.842934"
         style="text-align:center;text-anchor:middle;stroke-width:0.26458332" /></text>
    <text
       xml:space="preserve"
       style="font-style:normal;font-weight:normal;font-size:10.58333302px;line-height:1.25;font-family:sans-serif;letter-spacing:0px;word-spacing:0px;fill:#000000;fill-opacity:1;stroke:none;stroke-width:0.26458332"
       x="43.65625"
       y="25.802084"
       id="text4778-4"><tspan
         sodipodi:role="line"
         id="tspan4776-0"
         x="43.65625"
         y="25.802084"
         style="font-size:1.41111112px;text-align:center;text-anchor:middle;stroke-width:0.26458332">Hexagon Studio (GitHub Icon)</tspan></text>
    <text
       xml:space="preserve"
       style="font-style:normal;font-weight:normal;font-size:10.58333302px;line-height:1.25;font-family:sans-serif;letter-spacing:0px;word-spacing:0px;fill:#000000;fill-opacity:1;stroke:none;stroke-width:0.26458332"
       x="72.760414"
       y="25.802084"
       id="text4778-4-6"><tspan
         sodipodi:role="line"
         id="tspan4776-0-2"
         x="72.760414"
         y="25.802084"
         style="font-size:1.41111112px;text-align:center;text-anchor:middle;stroke-width:0.26458332">EGE (GitHub Icon)</tspan></text>
    <text
       xml:space="preserve"
       style="font-style:normal;font-weight:normal;font-size:10.58333302px;line-height:1.25;font-family:sans-serif;letter-spacing:0px;word-spacing:0px;fill:#000000;fill-opacity:1;stroke:none;stroke-width:0.26458332"
       x="43.65625"
       y="52.260418"
       id="text4778-4-6-9"><tspan
         sodipodi:role="line"
         id="tspan4776-0-2-9"
         x="43.65625"
         y="52.260418"
         style="font-size:1.41111112px;text-align:center;text-anchor:middle;stroke-width:0.26458332">Hexagon Studio (App Icon)</tspan></text>
    <path
       style="fill:#75dc85;fill-opacity:1;stroke:none;stroke-width:1;stroke-linecap:square;stroke-linejoin:miter;stroke-miterlimit:3.9000001;stroke-dasharray:none;stroke-dashoffset:0;stroke-opacity:1;paint-order:stroke fill markers"
       d="m 65.075098,27.312585 -5.543848,9.072832 h 4.233334 l 3.42718,-5.548499 h 10.847919 l 3.427179,5.548499 h 4.233334 l -5.543847,-9.072832 z m -5.543848,14.364499 5.543848,9.072833 h 15.081251 l 5.543847,-9.072833 h -4.233334 l -3.427179,5.548498 H 67.191764 l -3.42718,-5.548498 z"
       id="path829-0-6-0"
       inkscape:connector-curvature="0"
       sodipodi:nodetypes="cccccccccccccccccc" />
    <text
       xml:space="preserve"
       style="font-style:normal;font-weight:normal;font-size:10.58333302px;line-height:1.25;font-family:sans-serif;letter-spacing:0px;word-spacing:0px;fill:#000000;fill-opacity:1;stroke:none;stroke-width:0.26458332"
       x="72.760414"
       y="52.260418"
       id="text4778-4-6-9-8"><tspan
         sodipodi:role="line"
         id="tspan4776-0-2-9-1"
         x="72.760414"
         y="52.260418"
         style="font-size:1.41111112px;text-align:center;text-anchor:middle;stroke-width:0.26458332">EGE / Compiler GUI (App Icon)</tspan></text>
    <path
       style="fill:#75dc85;fill-opacity:1;stroke:none;stroke-width:1;stroke-linecap:square;stroke-linejoin:miter;stroke-miterlimit:3.9000001;stroke-dasharray:none;stroke-dashoffset:0;stroke-opacity:1;paint-order:stroke fill markers"
       d="m 71.821973,33.210375 v 1.932699 a 3.9687499,3.9687499 0 0 0 -0.03204,0.0083 3.9687499,3.9687499 0 0 0 -0.175702,0.04496 3.9687499,3.9687499 0 0 0 -0.203605,0.0553 3.9687499,3.9687499 0 0 0 -0.188619,0.06924 3.9687499,3.9687499 0 0 0 -0.182417,0.06977 3.9687499,3.9687499 0 0 0 -0.182417,0.08837 3.9687499,3.9687499 0 0 0 -0.173117,0.08733 3.9687499,3.9687499 0 0 0 -0.256315,0.154511 l -1.366843,-1.36684 -1.12241,1.12241 1.36684,1.366843 a 3.9687499,3.9687499 0 0 0 -0.01447,0.02429 3.9687499,3.9687499 0 0 0 -0.105936,0.178801 3.9687499,3.9687499 0 0 0 -0.09302,0.163298 3.9687499,3.9687499 0 0 0 -0.0832,0.1788 3.9687499,3.9687499 0 0 0 -0.08268,0.186034 3.9687499,3.9687499 0 0 0 -0.06149,0.178284 3.9687499,3.9687499 0 0 0 -0.0646,0.194821 3.9687499,3.9687499 0 0 0 -0.07234,0.289903 H 66.79489 v 1.5875 h 1.932699 a 3.9687499,3.9687499 0 0 0 0.0083,0.03204 3.9687499,3.9687499 0 0 0 0.04496,0.175702 3.9687499,3.9687499 0 0 0 0.05529,0.203605 3.9687499,3.9687499 0 0 0 0.06925,0.188618 3.9687499,3.9687499 0 0 0 0.06976,0.182417 3.9687499,3.9687499 0 0 0 0.08837,0.18242 3.9687499,3.9687499 0 0 0 0.08733,0.173114 3.9687499,3.9687499 0 0 0 0.154511,0.256315 l -1.36684,1.366843 1.12241,1.122413 1.366843,-1.366843 a 3.9687499,3.9687499 0 0 0 0.02429,0.01447 3.9687499,3.9687499 0 0 0 0.1788,0.105937 3.9687499,3.9687499 0 0 0 0.163296,0.09302 3.9687499,3.9687499 0 0 0 0.178802,0.0832 3.9687499,3.9687499 0 0 0 0.186034,0.08268 3.9687499,3.9687499 0 0 0 0.178284,0.0615 3.9687499,3.9687499 0 0 0 0.194821,0.0646 3.9687499,3.9687499 0 0 0 0.289904,0.07234 v 1.932699 h 1.5875 V 42.91939 a 3.9687499,3.9687499 0 0 0 0.03204,-0.0083 3.9687499,3.9687499 0 0 0 0.175702,-0.04496 3.9687499,3.9687499 0 0 0 0.203605,-0.05529 3.9687499,3.9687499 0 0 0 0.188619,-0.06925 3.9687499,3.9687499 0 0 0 0.182417,-0.06976 3.9687499,3.9687499 0 0 0 0.182417,-0.08837 3.9687499,3.9687499 0 0 0 0.173117,-0.08733 3.9687499,3.9687499 0 0 0 0.256315,-0.154511 l 1.366843,1.366843 1.12241,-1.122413 -1.36684,-1.366843 a 3.9687499,3.9687499 0 0 0 0.01447,-0.02429 3.9687499,3.9687499 0 0 0 0.105936,-0.178803 3.9687499,3.9687499 0 0 0 0.09302,-0.163295 3.9687499,3.9687499 0 0 0 0.0832,-0.1788 3.9687499,3.9687499 0 0 0 0.08268,-0.186037 3.9687499,3.9687499 0 0 0 0.06149,-0.178284 3.9687499,3.9687499 0 0 0 0.0646,-0.194821 3.9687499,3.9687499 0 0 0 0.07234,-0.289904 h 1.932699 v -1.5875 h -1.932699 a 3.9687499,3.9687499 0 0 0 -0.0083,-0.03204 3.9687499,3.9687499 0 0 0 -0.04496,-0.175699 3.9687499,3.9687499 0 0 0 -0.05529,-0.203608 3.9687499,3.9687499 0 0 0 -0.06925,-0.188618 3.9687499,3.9687499 0 0 0 -0.06976,-0.182417 3.9687499,3.9687499 0 0 0 -0.08837,-0.182417 3.9687499,3.9687499 0 0 0 -0.08733,-0.173117 3.9687499,3.9687499 0 0 0 -0.154511,-0.256315 l 1.36684,-1.366843 -1.12241,-1.12241 -1.366843,1.36684 a 3.9687499,3.9687499 0 0 0 -0.02429,-0.01447 3.9687499,3.9687499 0 0 0 -0.1788,-0.105937 3.9687499,3.9687499 0 0 0 -0.163296,-0.09302 3.9687499,3.9687499 0 0 0 -0.178802,-0.0832 3.9687499,3.9687499 0 0 0 -0.186034,-0.08268 3.9687499,3.9687499 0 0 0 -0.178284,-0.0615 3.9687499,3.9687499 0 0 0 -0.194821,-0.0646 3.9687499,3.9687499 0 0 0 -0.289904,-0.07235 v -1.932699 z"
       id="path4960"
       inkscape:connector-curvature="0" />
    <path
       style="fill:#9bd6ff;fill-opacity:1;stroke:none;stroke-width:1;stroke-linecap:square;stroke-linejoin:miter;stroke-miterlimit:3.9000001;stroke-dasharray:none;stroke-dashoffset:0;stroke-opacity:1;paint-order:stroke fill markers"
       d="M 6.866764,27.312586 1.3229167,36.385417 H 5.55625 L 8.9834307,30.836918 H 19.831349 l 3.427179,5.548499 h 4.233334 L 21.948015,27.312586 Z M 1.3229167,41.677083 6.866764,50.749916 h 15.081251 l 5.543847,-9.072833 h -4.233334 l -3.427179,5.548498 H 8.9834307 L 5.55625,41.677083 Z"
       id="path829-9"
       inkscape:connector-curvature="0"
       sodipodi:nodetypes="cccccccccccccccccc" />
    <text
       xml:space="preserve"
       style="font-style:normal;font-weight:normal;font-size:10.58333302px;line-height:1.25;font-family:sans-serif;letter-spacing:0px;word-spacing:0px;fill:#000000;fill-opacity:1;stroke:none;stroke-width:0.26458332"
       x="14.552083"
       y="52.260418"
       id="text4778-4-6-9-6"><tspan
         sodipodi:role="line"
         id="tspan4776-0-2-9-9"
         x="14.552083"
         y="52.260418"
         style="font-size:1.41111112px;text-align:center;text-anchor:middle;stroke-width:0.26458332">Engine global icon (Installer App Icon)</tspan></text>
  </g>
</svg>
