<?xml version="1.0" encoding="UTF-8" standalone="no"?>
<!-- Created with Inkscape (http://www.inkscape.org/) -->

<svg
   xmlns:dc="http://purl.org/dc/elements/1.1/"
   xmlns:cc="http://creativecommons.org/ns#"
   xmlns:rdf="http://www.w3.org/1999/02/22-rdf-syntax-ns#"
   xmlns:svg="http://www.w3.org/2000/svg"
   xmlns="http://www.w3.org/2000/svg"
   xmlns:sodipodi="http://sodipodi.sourceforge.net/DTD/sodipodi-0.dtd"
   xmlns:inkscape="http://www.inkscape.org/namespaces/inkscape"
   width="512"
   height="512"
   viewBox="0 0 135.46666 135.46667"
   version="1.1"
   id="svg5078"
   inkscape:version="0.92.5 (2060ec1f9f, 2020-04-08)"
   sodipodi:docname="hexagon-ege-compilergui-app.svg">
  <defs
     id="defs5072" />
  <sodipodi:namedview
     id="base"
     pagecolor="#ffffff"
     bordercolor="#666666"
     borderopacity="1.0"
     inkscape:pageopacity="0.0"
     inkscape:pageshadow="2"
     inkscape:zoom="0.5"
     inkscape:cx="211.44887"
     inkscape:cy="237.93407"
     inkscape:document-units="mm"
     inkscape:current-layer="layer1"
     showgrid="true"
     units="px"
     inkscape:window-width="924"
     inkscape:window-height="1016"
     inkscape:window-x="996"
     inkscape:window-y="27"
     inkscape:window-maximized="0" />
  <metadata
     id="metadata5075">
    <rdf:RDF>
      <cc:Work
         rdf:about="">
        <dc:format>image/svg+xml</dc:format>
        <dc:type
           rdf:resource="http://purl.org/dc/dcmitype/StillImage" />
        <dc:title></dc:title>
      </cc:Work>
    </rdf:RDF>
  </metadata>
  <g
     inkscape:label="Layer 1"
     inkscape:groupmode="layer"
     id="layer1"
     transform="translate(0,-161.53332)">
    <path
       style="fill:#75dc85;fill-opacity:1;stroke:none;stroke-width:5;stroke-linecap:square;stroke-linejoin:miter;stroke-miterlimit:3.9000001;stroke-dasharray:none;stroke-dashoffset:0;stroke-opacity:1;paint-order:stroke fill markers"
       d="m 30.030216,170.67333 -27.71924,45.36415 h 21.16667 l 17.1359,-27.7425 h 54.239595 l 17.135899,27.7425 h 21.16665 l -27.7192,-45.36415 z m -27.71924,71.8225 27.71924,45.36415 h 75.406274 l 27.7192,-45.36415 h -21.16665 l -17.135899,27.7425 H 40.613546 l -17.1359,-27.7425 z"
       id="path829-0-6-0"
       inkscape:connector-curvature="0"
       sodipodi:nodetypes="cccccccccccccccccc" />
    <path
       style="fill:#75dc85;fill-opacity:1;stroke:none;stroke-width:5;stroke-linecap:square;stroke-linejoin:miter;stroke-miterlimit:3.9000001;stroke-dasharray:none;stroke-dashoffset:0;stroke-opacity:1;paint-order:stroke fill markers"
       d="m 63.764591,200.16228 v 9.6635 a 19.84375,19.84375 0 0 0 -0.16,0.04 19.84375,19.84375 0 0 0 -0.8785,0.225 19.84375,19.84375 0 0 0 -1.01805,0.2765 19.84375,19.84375 0 0 0 -0.9431,0.346 19.84375,19.84375 0 0 0 -0.91205,0.349 19.84375,19.84375 0 0 0 -0.9121,0.442 19.84375,19.84375 0 0 0 -0.8656,0.4365 19.84375,19.84375 0 0 0 -1.28155,0.77255 l -6.834225,-6.8342 -5.61205,5.61205 6.8342,6.8342 a 19.84375,19.84375 0 0 0 -0.07235,0.1215 19.84375,19.84375 0 0 0 -0.52968,0.89405 19.84375,19.84375 0 0 0 -0.4651,0.81645 19.84375,19.84375 0 0 0 -0.416,0.894 19.84375,19.84375 0 0 0 -0.4134,0.9302 19.84375,19.84375 0 0 0 -0.30745,0.8914 19.84375,19.84375 0 0 0 -0.323,0.9741 19.84375,19.84375 0 0 0 -0.3617,1.44955 h -9.66351 v 7.9375 h 9.663495 a 19.84375,19.84375 0 0 0 0.0415,0.16 19.84375,19.84375 0 0 0 0.2248,0.8785 19.84375,19.84375 0 0 0 0.27645,1.018 19.84375,19.84375 0 0 0 0.34625,0.9431 19.84375,19.84375 0 0 0 0.3488,0.9121 19.84375,19.84375 0 0 0 0.44185,0.9121 19.84375,19.84375 0 0 0 0.43665,0.86555 19.84375,19.84375 0 0 0 0.772555,1.2816 l -6.8342,6.8342 5.61205,5.61205 6.834215,-6.8342 a 19.84375,19.84375 0 0 0 0.1215,0.0725 19.84375,19.84375 0 0 0 0.894,0.5297 19.84375,19.84375 0 0 0 0.8165,0.465 19.84375,19.84375 0 0 0 0.894,0.416 19.84375,19.84375 0 0 0 0.93015,0.4135 19.84375,19.84375 0 0 0 0.89145,0.3075 19.84375,19.84375 0 0 0 0.9741,0.323 19.84375,19.84375 0 0 0 1.4495,0.3615 v 9.6635 h 7.9375 v -9.6635 a 19.84375,19.84375 0 0 0 0.16,-0.04 19.84375,19.84375 0 0 0 0.8785,-0.225 19.84375,19.84375 0 0 0 1.01805,-0.2765 19.84375,19.84375 0 0 0 0.9431,-0.346 19.84375,19.84375 0 0 0 0.91205,-0.349 19.84375,19.84375 0 0 0 0.9121,-0.442 19.84375,19.84375 0 0 0 0.8656,-0.4365 19.84375,19.84375 0 0 0 1.28155,-0.7726 l 6.83425,6.83425 5.61205,-5.6121 -6.8342,-6.8342 a 19.84375,19.84375 0 0 0 0.0725,-0.1215 19.84375,19.84375 0 0 0 0.52965,-0.894 19.84375,19.84375 0 0 0 0.465,-0.8165 19.84375,19.84375 0 0 0 0.416,-0.894 19.84375,19.84375 0 0 0 0.4135,-0.93015 19.84375,19.84375 0 0 0 0.3075,-0.89145 19.84375,19.84375 0 0 0 0.323,-0.9741 19.84375,19.84375 0 0 0 0.3615,-1.4495 h 9.6635 v -7.9375 h -9.6635 a 19.84375,19.84375 0 0 0 -0.04,-0.16 19.84375,19.84375 0 0 0 -0.225,-0.8785 19.84375,19.84375 0 0 0 -0.2765,-1.01805 19.84375,19.84375 0 0 0 -0.3465,-0.9431 19.84375,19.84375 0 0 0 -0.349,-0.91205 19.84375,19.84375 0 0 0 -0.442,-0.9121 19.84375,19.84375 0 0 0 -0.4365,-0.8656 19.84375,19.84375 0 0 0 -0.77255,-1.28155 l 6.8342,-6.83425 -5.61205,-5.61205 -6.8342,6.8342 a 19.84375,19.84375 0 0 0 -0.1215,-0.0725 19.84375,19.84375 0 0 0 -0.894,-0.52965 19.84375,19.84375 0 0 0 -0.8165,-0.465 19.84375,19.84375 0 0 0 -0.894,-0.416 19.84375,19.84375 0 0 0 -0.9302,-0.4135 19.84375,19.84375 0 0 0 -0.8914,-0.3075 19.84375,19.84375 0 0 0 -0.9741,-0.323 19.84375,19.84375 0 0 0 -1.4495,-0.362 v -9.6635 z"
       id="path4960"
       inkscape:connector-curvature="0" />
  </g>
</svg>
